<svg xmlns="http://www.w3.org/2000/svg" viewBox="0 0 80 80"><defs><style>.a{fill:#ffffff;}</style></defs><path class="a" d="M-4604,40a40.045,40.045,0,0,1,40-40,40.045,40.045,0,0,1,40,40,40.046,40.046,0,0,1-40,40A40.046,40.046,0,0,1-4604,40Zm6.154,0A33.884,33.884,0,0,0-4564,73.846,33.884,33.884,0,0,0-4530.154,40,33.884,33.884,0,0,0-4564,6.154,33.884,33.884,0,0,0-4597.846,40ZM-4567,40V13a3,3,0,0,1,3-3,3,3,0,0,1,3,3V35l12.294-7.1a3,3,0,0,1,4.1,1.1,3,3,0,0,1-1.1,4.1l-15.588,9a3.008,3.008,0,0,1-.983.357A2.983,2.983,0,0,1-4564,43,3,3,0,0,1-4567,40Z" transform="translate(4604)"></path></svg>
