<svg xmlns="http://www.w3.org/2000/svg" viewBox="0 0 80 80">
                                        <defs>
                                            <style>
                                                .cls-1 {
                                                    fill: #d3d3d3;
                                                }
                                            </style>
                                        </defs>
                                        <path id="Path_250" data-name="Path 250" class="cls-1" d="M46,246a40,40,0,1,0,40,40,40,40,0,0,0-40-40Zm4.615,59.831v4.785H42.923v-3.277a24.845,24.845,0,0,1-11.862-2.877l2.2-9.015a24.353,24.353,0,0,0,10.769,3.077c3.8,0,5.277-1.323,5.277-3.385s-1.446-3.077-6.154-4.615c-8.354-2.815-12-7.354-11.908-12.154,0-6.477,3.985-11.585,11.677-12.892v-4.092h7.692v4.169a19.754,19.754,0,0,1,8.031,1.985l-1.015,8.677a20.216,20.216,0,0,0-8.846-2.308c-3.077,0-4.954,1.246-4.954,3.308s1.262,2.892,6.154,4.615c7.692,2.646,10.277,6.538,10.369,12.492C60.415,299.508,55.231,303.708,50.615,305.831Z" transform="translate(-6 -246)"></path>
                                    </svg>
